<?xml version="1.0" encoding="UTF-8"?>
<!DOCTYPE svg PUBLIC "-//W3C//DTD SVG 1.1//EN" "http://www.w3.org/Graphics/SVG/1.1/DTD/svg11.dtd">
<svg xmlns="http://www.w3.org/2000/svg" version="1.1" width="946px" height="946px" style="shape-rendering:geometricPrecision; text-rendering:geometricPrecision; image-rendering:optimizeQuality; fill-rule:evenodd; clip-rule:evenodd" xmlns:xlink="http://www.w3.org/1999/xlink">
<g><path style="opacity:0.223" fill="#585955" d="M 510.5,75.5 C 507.833,75.5 505.167,75.5 502.5,75.5C 500.833,75.5 499.167,75.5 497.5,75.5C 480.007,74.3178 462.674,74.3178 445.5,75.5C 440.833,75.5 436.167,75.5 431.5,75.5C 428.5,75.5 425.5,75.5 422.5,75.5C 436.966,73.9567 451.633,73.29 466.5,73.5C 481.367,73.29 496.034,73.9567 510.5,75.5 Z"/></g>
<g><path style="opacity:0.038" fill="#d6d8d4" d="M 422.5,75.5 C 425.5,75.5 428.5,75.5 431.5,75.5C 431.5,75.8333 431.5,76.1667 431.5,76.5C 423.471,76.8371 415.471,77.5038 407.5,78.5C 405.5,78.5 403.5,78.5 401.5,78.5C 408.273,76.8543 415.273,75.8543 422.5,75.5 Z"/></g>
<g><path style="opacity:1" fill="#80c200" d="M 431.5,76.5 C 431.5,76.1667 431.5,75.8333 431.5,75.5C 436.167,75.5 440.833,75.5 445.5,75.5C 454.173,75.3336 462.84,75.5002 471.5,76C 535.139,138.639 598.473,201.639 661.5,265C 653.656,265.171 645.989,265.671 638.5,266.5C 626.167,266.5 613.833,266.5 601.5,266.5C 610.324,265.67 619.324,265.17 628.5,265C 565.806,201.972 502.806,139.306 439.5,77C 436.854,76.5026 434.187,76.3359 431.5,76.5 Z"/></g>
<g><path style="opacity:1" fill="#86c301" d="M 445.5,75.5 C 462.674,74.3178 480.007,74.3178 497.5,75.5C 506.58,83.4056 515.58,91.5723 524.5,100C 579.833,155.333 635.167,210.667 690.5,266C 682.688,265.334 675.021,265.501 667.5,266.5C 657.833,266.5 648.167,266.5 638.5,266.5C 645.989,265.671 653.656,265.171 661.5,265C 598.473,201.639 535.139,138.639 471.5,76C 462.84,75.5002 454.173,75.3336 445.5,75.5 Z"/></g>
<g><path style="opacity:1" fill="#79c000" d="M 431.5,76.5 C 434.187,76.3359 436.854,76.5026 439.5,77C 502.806,139.306 565.806,201.972 628.5,265C 619.324,265.17 610.324,265.67 601.5,266.5C 592.167,266.5 582.833,266.5 573.5,266.5C 582.324,265.67 591.324,265.17 600.5,265C 538.806,202.972 476.806,141.306 414.5,80C 412.19,79.5034 409.857,79.3367 407.5,79.5C 407.5,79.1667 407.5,78.8333 407.5,78.5C 415.471,77.5038 423.471,76.8371 431.5,76.5 Z"/></g>
<g><path style="opacity:1" fill="#8cc501" d="M 497.5,75.5 C 499.167,75.5 500.833,75.5 502.5,75.5C 509.998,76.7297 517.665,77.7297 525.5,78.5C 528.345,79.3438 531.345,80.0104 534.5,80.5C 597.611,145.444 661.611,209.611 726.5,273C 724.866,273.494 723.199,273.66 721.5,273.5C 703.75,269.268 685.75,266.935 667.5,266.5C 675.021,265.501 682.688,265.334 690.5,266C 635.167,210.667 579.833,155.333 524.5,100C 515.58,91.5723 506.58,83.4056 497.5,75.5 Z"/></g>
<g><path style="opacity:0.024" fill="#f2f3ed" d="M 502.5,75.5 C 505.167,75.5 507.833,75.5 510.5,75.5C 515.58,75.8783 520.58,76.545 525.5,77.5C 525.5,77.8333 525.5,78.1667 525.5,78.5C 517.665,77.7297 509.998,76.7297 502.5,75.5 Z"/></g>
<g><path style="opacity:0.129" fill="#b9bbb2" d="M 525.5,77.5 C 537.2,78.5964 548.534,80.9298 559.5,84.5C 558.5,84.5 557.5,84.5 556.5,84.5C 549.177,83.1682 541.844,81.8349 534.5,80.5C 531.345,80.0104 528.345,79.3438 525.5,78.5C 525.5,78.1667 525.5,77.8333 525.5,77.5 Z"/></g>
<g><path style="opacity:0.027" fill="#f8faf5" d="M 401.5,78.5 C 403.5,78.5 405.5,78.5 407.5,78.5C 407.5,78.8333 407.5,79.1667 407.5,79.5C 401.484,80.0366 395.484,80.7032 389.5,81.5C 389.5,81.1667 389.5,80.8333 389.5,80.5C 393.418,79.5584 397.418,78.8918 401.5,78.5 Z"/></g>
<g><path style="opacity:1" fill="#73be00" d="M 407.5,79.5 C 409.857,79.3367 412.19,79.5034 414.5,80C 476.806,141.306 538.806,202.972 600.5,265C 591.324,265.17 582.324,265.67 573.5,266.5C 563.833,266.5 554.167,266.5 544.5,266.5C 544.5,266.167 544.5,265.833 544.5,265.5C 553.839,265.666 563.173,265.5 572.5,265C 512.139,204.306 451.473,143.972 390.5,84C 388.866,83.5065 387.199,83.3398 385.5,83.5C 386.833,82.8333 388.167,82.1667 389.5,81.5C 395.484,80.7032 401.484,80.0366 407.5,79.5 Z"/></g>
<g><path style="opacity:0.122" fill="#c3c5c0" d="M 389.5,80.5 C 389.5,80.8333 389.5,81.1667 389.5,81.5C 388.167,82.1667 386.833,82.8333 385.5,83.5C 378.533,84.9916 371.533,86.325 364.5,87.5C 363.5,87.5 362.5,87.5 361.5,87.5C 370.501,84.2498 379.834,81.9164 389.5,80.5 Z"/></g>
<g><path style="opacity:1" fill="#92c701" d="M 534.5,80.5 C 541.844,81.8349 549.177,83.1682 556.5,84.5C 560.313,85.7867 564.313,86.7867 568.5,87.5C 569.167,87.8333 569.833,88.1667 570.5,88.5C 570.369,89.2389 570.536,89.9056 571,90.5C 640.861,160.694 711.027,230.528 781.5,300C 780.552,300.483 779.552,300.649 778.5,300.5C 760.88,288.523 741.88,279.523 721.5,273.5C 723.199,273.66 724.866,273.494 726.5,273C 661.611,209.611 597.611,145.444 534.5,80.5 Z"/></g>
<g><path style="opacity:1" fill="#6dbd00" d="M 385.5,83.5 C 387.199,83.3398 388.866,83.5065 390.5,84C 451.473,143.972 512.139,204.306 572.5,265C 563.173,265.5 553.839,265.666 544.5,265.5C 485.395,206.895 426.395,148.062 367.5,89C 366.552,88.5172 365.552,88.3505 364.5,88.5C 364.5,88.1667 364.5,87.8333 364.5,87.5C 371.533,86.325 378.533,84.9916 385.5,83.5 Z"/></g>
<g><path style="opacity:0.068" fill="#f0f2e9" d="M 556.5,84.5 C 557.5,84.5 558.5,84.5 559.5,84.5C 562.583,84.916 565.583,85.5826 568.5,86.5C 568.5,86.8333 568.5,87.1667 568.5,87.5C 564.313,86.7867 560.313,85.7867 556.5,84.5 Z"/></g>
<g><path style="opacity:0.153" fill="#f1f4ed" d="M 361.5,87.5 C 362.5,87.5 363.5,87.5 364.5,87.5C 364.5,87.8333 364.5,88.1667 364.5,88.5C 361.167,89.1667 357.833,89.8333 354.5,90.5C 354.5,90.1667 354.5,89.8333 354.5,89.5C 356.599,88.3882 358.933,87.7215 361.5,87.5 Z"/></g>
<g><path style="opacity:0.016" fill="#b6b8b0" d="M 568.5,87.5 C 568.5,87.1667 568.5,86.8333 568.5,86.5C 572.735,87.4668 576.735,88.8002 580.5,90.5C 579.833,90.5 579.167,90.5 578.5,90.5C 575.779,90.0372 573.112,89.3705 570.5,88.5C 569.833,88.1667 569.167,87.8333 568.5,87.5 Z"/></g>
<g><path style="opacity:0.999" fill="#99c802" d="M 570.5,88.5 C 573.112,89.3705 575.779,90.0372 578.5,90.5C 581.619,91.8699 584.952,92.8699 588.5,93.5C 592.216,95.4053 596.216,96.7387 600.5,97.5C 602.792,99.2671 605.458,100.267 608.5,100.5C 609.78,101.931 611.447,102.598 613.5,102.5C 614.791,102.263 615.791,102.596 616.5,103.5C 617.514,104.674 618.847,105.34 620.5,105.5C 620.5,106.167 620.833,106.5 621.5,106.5C 685.812,172.812 751.146,238.146 817.5,302.5C 818.167,302.5 818.833,302.5 819.5,302.5C 820.11,303.391 820.443,304.391 820.5,305.5C 820.157,307.483 820.824,308.817 822.5,309.5C 823.11,310.391 823.443,311.391 823.5,312.5C 823.824,317.461 825.491,321.794 828.5,325.5C 828.5,325.833 828.5,326.167 828.5,326.5C 830.796,335.052 833.463,343.385 836.5,351.5C 836.41,354.152 837.076,356.485 838.5,358.5C 839.341,363.532 840.341,368.532 841.5,373.5C 826.592,343.924 805.592,319.591 778.5,300.5C 779.552,300.649 780.552,300.483 781.5,300C 711.027,230.528 640.861,160.694 571,90.5C 570.536,89.9056 570.369,89.2389 570.5,88.5 Z"/></g>
<g><path style="opacity:1" fill="#66bb00" d="M 364.5,88.5 C 365.552,88.3505 366.552,88.5172 367.5,89C 426.395,148.062 485.395,206.895 544.5,265.5C 544.5,265.833 544.5,266.167 544.5,266.5C 519.5,266.5 494.5,266.5 469.5,266.5C 469.5,266.167 469.5,265.833 469.5,265.5C 474.167,265.5 478.833,265.5 483.5,265.5C 492.839,265.666 502.173,265.5 511.5,265C 455.473,208.639 399.139,152.639 342.5,97C 341.552,96.5172 340.552,96.3505 339.5,96.5C 344.5,94.5 349.5,92.5 354.5,90.5C 357.833,89.8333 361.167,89.1667 364.5,88.5 Z"/></g>
<g><path style="opacity:0.063" fill="#e6e9db" d="M 578.5,90.5 C 579.167,90.5 579.833,90.5 580.5,90.5C 583.267,90.8583 585.933,91.525 588.5,92.5C 588.5,92.8333 588.5,93.1667 588.5,93.5C 584.952,92.8699 581.619,91.8699 578.5,90.5 Z"/></g>
<g><path style="opacity:0.08" fill="#bebfbb" d="M 588.5,92.5 C 592.83,93.571 596.83,95.2377 600.5,97.5C 596.216,96.7387 592.216,95.4053 588.5,93.5C 588.5,93.1667 588.5,92.8333 588.5,92.5 Z"/></g>
<g><path style="opacity:1" fill="#60b900" d="M 339.5,96.5 C 340.552,96.3505 341.552,96.5172 342.5,97C 399.139,152.639 455.473,208.639 511.5,265C 502.173,265.5 492.839,265.666 483.5,265.5C 429.194,211.527 374.86,157.527 320.5,103.5C 326.539,100.595 332.873,98.2621 339.5,96.5 Z"/></g>
<g><path style="opacity:0.051" fill="#cdd0c5" d="M 600.5,97.5 C 603.649,97.4152 606.316,98.4152 608.5,100.5C 605.458,100.267 602.792,99.2671 600.5,97.5 Z"/></g>
<g><path style="opacity:0.053" fill="#d3d5c7" d="M 608.5,100.5 C 610.698,100.12 612.365,100.787 613.5,102.5C 611.447,102.598 609.78,101.931 608.5,100.5 Z"/></g>
<g><path style="opacity:1" fill="#5ab701" d="M 320.5,103.5 C 374.86,157.527 429.194,211.527 483.5,265.5C 478.833,265.5 474.167,265.5 469.5,265.5C 464.539,266.313 460.206,265.147 456.5,262C 406.167,211.667 355.833,161.333 305.5,111C 306.056,110.617 306.389,110.117 306.5,109.5C 310.93,106.952 315.597,104.952 320.5,103.5 Z"/></g>
<g><path style="opacity:0.039" fill="#a5a6a2" d="M 616.5,103.5 C 618.38,103.229 619.713,103.896 620.5,105.5C 618.847,105.34 617.514,104.674 616.5,103.5 Z"/></g>
<g><path style="opacity:0.995" fill="#9dc609" d="M 621.5,106.5 C 623.113,106.944 624.28,107.944 625,109.5C 626.299,109.034 627.799,109.034 629.5,109.5C 630.514,110.674 631.847,111.34 633.5,111.5C 635.25,112.473 636.75,113.807 638,115.5C 638.333,115.167 638.667,114.833 639,114.5C 640.584,115.861 642.418,116.528 644.5,116.5C 651.332,119.412 657.666,123.079 663.5,127.5C 664.344,129.759 666.011,130.759 668.5,130.5C 671.331,131.079 673.664,132.412 675.5,134.5C 675.821,136.048 676.821,136.715 678.5,136.5C 680.795,137.475 682.795,138.808 684.5,140.5C 684.821,142.048 685.821,142.715 687.5,142.5C 690.135,143.811 692.469,145.478 694.5,147.5C 694.821,149.048 695.821,149.715 697.5,149.5C 718.371,164.368 737.038,181.701 753.5,201.5C 753.5,203.5 754.5,204.5 756.5,204.5C 757.5,204.833 758.167,205.5 758.5,206.5C 758.67,209.204 760.003,210.871 762.5,211.5C 766.18,215.183 769.514,219.183 772.5,223.5C 772.285,225.179 772.952,226.179 774.5,226.5C 775.906,226.973 776.573,227.973 776.5,229.5C 777.247,232.362 778.914,234.362 781.5,235.5C 781.833,236.167 782.167,236.833 782.5,237.5C 785.422,243.686 789.089,249.352 793.5,254.5C 803.021,268.198 811.021,282.865 817.5,298.5C 817.5,299.833 817.5,301.167 817.5,302.5C 751.146,238.146 685.812,172.812 621.5,106.5 Z"/></g>
<g><path style="opacity:0.925" fill="#b0ba87" d="M 620.5,105.5 C 623.912,106.042 626.912,107.375 629.5,109.5C 627.799,109.034 626.299,109.034 625,109.5C 624.28,107.944 623.113,106.944 621.5,106.5C 620.833,106.5 620.5,106.167 620.5,105.5 Z"/></g>
<g><path style="opacity:0.047" fill="#a5a6a1" d="M 629.5,109.5 C 631.38,109.229 632.713,109.896 633.5,111.5C 631.847,111.34 630.514,110.674 629.5,109.5 Z"/></g>
<g><path style="opacity:1" fill="#54b30e" d="M 306.5,109.5 C 306.389,110.117 306.056,110.617 305.5,111C 355.833,161.333 406.167,211.667 456.5,262C 460.206,265.147 464.539,266.313 469.5,265.5C 469.5,265.833 469.5,266.167 469.5,266.5C 459.833,266.5 450.167,266.5 440.5,266.5C 390.5,216.833 340.5,167.167 290.5,117.5C 295.516,114.326 300.849,111.659 306.5,109.5 Z"/></g>
<g><path style="opacity:0.855" fill="#99a175" d="M 633.5,111.5 C 637.582,112.376 641.249,114.043 644.5,116.5C 642.418,116.528 640.584,115.861 639,114.5C 638.667,114.833 638.333,115.167 638,115.5C 636.75,113.807 635.25,112.473 633.5,111.5 Z"/></g>
<g><path style="opacity:1" fill="#50b017" d="M 290.5,117.5 C 340.5,167.167 390.5,216.833 440.5,266.5C 434.5,266.5 428.5,266.5 422.5,266.5C 421.391,265.71 420.058,265.21 418.5,265C 371.605,217.938 324.605,171.105 277.5,124.5C 281.666,121.916 286,119.583 290.5,117.5 Z"/></g>
<g><path style="opacity:1" fill="#4bad21" d="M 277.5,124.5 C 324.605,171.105 371.605,217.938 418.5,265C 420.058,265.21 421.391,265.71 422.5,266.5C 418.5,266.5 414.5,266.5 410.5,266.5C 408.708,265.691 406.708,265.191 404.5,265C 359.972,220.139 315.139,175.639 270,131.5C 269.536,130.906 269.369,130.239 269.5,129.5C 271.822,127.336 274.489,125.669 277.5,124.5 Z"/></g>
<g><path style="opacity:0.902" fill="#88974d" d="M 663.5,127.5 C 665.674,127.75 667.341,128.75 668.5,130.5C 666.011,130.759 664.344,129.759 663.5,127.5 Z"/></g>
<g><path style="opacity:1" fill="#46a92c" d="M 269.5,129.5 C 269.369,130.239 269.536,130.906 270,131.5C 315.139,175.639 359.972,220.139 404.5,265C 406.708,265.191 408.708,265.691 410.5,266.5C 402.833,266.5 395.167,266.5 387.5,266.5C 386.048,265.698 384.382,265.198 382.5,265C 339.915,222.916 297.915,180.416 256.5,137.5C 260.323,134.084 264.657,131.418 269.5,129.5 Z"/></g>
<g><path style="opacity:0.314" fill="#707948" d="M 675.5,134.5 C 676.71,134.932 677.71,135.599 678.5,136.5C 676.821,136.715 675.821,136.048 675.5,134.5 Z"/></g>
<g><path style="opacity:1" fill="#42a735" d="M 256.5,137.5 C 297.915,180.416 339.915,222.916 382.5,265C 384.382,265.198 386.048,265.698 387.5,266.5C 383.5,266.5 379.5,266.5 375.5,266.5C 374.048,265.698 372.382,265.198 370.5,265C 330.139,224.305 289.472,183.972 248.5,144C 249.381,143.292 250.047,142.458 250.5,141.5C 252.147,139.674 254.147,138.34 256.5,137.5 Z"/></g>
<g><path style="opacity:0.396" fill="#6f7845" d="M 684.5,140.5 C 685.71,140.932 686.71,141.599 687.5,142.5C 685.821,142.715 684.821,142.048 684.5,140.5 Z"/></g>
<g><path style="opacity:1" fill="#3fa53b" d="M 250.5,141.5 C 250.047,142.458 249.381,143.292 248.5,144C 289.472,183.972 330.139,224.305 370.5,265C 372.382,265.198 374.048,265.698 375.5,266.5C 371.833,266.5 368.167,266.5 364.5,266.5C 363.081,265.549 361.415,265.216 359.5,265.5C 320.473,225.806 281.14,186.473 241.5,147.5C 243.975,144.759 246.975,142.759 250.5,141.5 Z"/></g>
<g><path style="opacity:1" fill="#3ca340" d="M 241.5,147.5 C 281.14,186.473 320.473,225.806 359.5,265.5C 356.813,265.664 354.146,265.497 351.5,265C 313.299,226.965 275.299,188.799 237.5,150.5C 238.436,149.026 239.77,148.026 241.5,147.5 Z"/></g>
<g><path style="opacity:0.325" fill="#6f7846" d="M 694.5,147.5 C 695.71,147.932 696.71,148.599 697.5,149.5C 695.821,149.715 694.821,149.048 694.5,147.5 Z"/></g>
<g><path style="opacity:0.033" fill="#cbd4cc" d="M 354.5,89.5 C 354.5,89.8333 354.5,90.1667 354.5,90.5C 349.5,92.5 344.5,94.5 339.5,96.5C 332.873,98.2621 326.539,100.595 320.5,103.5C 315.597,104.952 310.93,106.952 306.5,109.5C 300.849,111.659 295.516,114.326 290.5,117.5C 286,119.583 281.666,121.916 277.5,124.5C 274.489,125.669 271.822,127.336 269.5,129.5C 264.657,131.418 260.323,134.084 256.5,137.5C 254.147,138.34 252.147,139.674 250.5,141.5C 246.975,142.759 243.975,144.759 241.5,147.5C 239.77,148.026 238.436,149.026 237.5,150.5C 234.527,152.147 231.86,154.147 229.5,156.5C 227.091,157.701 225.091,159.367 223.5,161.5C 221.091,162.701 219.091,164.367 217.5,166.5C 215.46,168.177 213.46,169.844 211.5,171.5C 209.5,172.833 207.833,174.5 206.5,176.5C 203.236,178.094 200.569,180.427 198.5,183.5C 196.167,185.167 194.167,187.167 192.5,189.5C 191.167,190.167 190.167,191.167 189.5,192.5C 186.757,194.239 184.757,196.573 183.5,199.5C 181.167,201.167 179.167,203.167 177.5,205.5C 175.273,207.607 173.273,209.94 171.5,212.5C 170.604,213.506 169.938,213.506 169.5,212.5C 218.601,152.771 280.267,111.771 354.5,89.5 Z"/></g>
<g><path style="opacity:1" fill="#39a146" d="M 237.5,150.5 C 275.299,188.799 313.299,226.965 351.5,265C 354.146,265.497 356.813,265.664 359.5,265.5C 361.415,265.216 363.081,265.549 364.5,266.5C 359.833,266.5 355.167,266.5 350.5,266.5C 349.527,268.948 349.194,271.615 349.5,274.5C 308.579,236.247 268.579,196.913 229.5,156.5C 231.86,154.147 234.527,152.147 237.5,150.5 Z"/></g>
<g><path style="opacity:1" fill="#369f4e" d="M 229.5,156.5 C 268.579,196.913 308.579,236.247 349.5,274.5C 349.5,278.5 349.5,282.5 349.5,286.5C 348.883,286.611 348.383,286.944 348,287.5C 305.915,245.916 264.415,203.916 223.5,161.5C 225.091,159.367 227.091,157.701 229.5,156.5 Z"/></g>
<g><path style="opacity:1" fill="#339d54" d="M 223.5,161.5 C 264.415,203.916 305.915,245.916 348,287.5C 348.383,286.944 348.883,286.611 349.5,286.5C 349.5,290.167 349.5,293.833 349.5,297.5C 348.883,297.611 348.383,297.944 348,298.5C 304.361,255.861 261.028,212.861 218,169.5C 217.517,168.552 217.351,167.552 217.5,166.5C 219.091,164.367 221.091,162.701 223.5,161.5 Z"/></g>
<g><path style="opacity:1" fill="#309a5a" d="M 217.5,166.5 C 217.351,167.552 217.517,168.552 218,169.5C 261.028,212.861 304.361,255.861 348,298.5C 348.383,297.944 348.883,297.611 349.5,297.5C 349.5,299.833 349.5,302.167 349.5,304.5C 348.71,305.609 348.21,306.942 348,308.5C 302.361,263.861 257.028,218.861 212,173.5C 211.536,172.906 211.369,172.239 211.5,171.5C 213.46,169.844 215.46,168.177 217.5,166.5 Z"/></g>
<g><path style="opacity:1" fill="#2d9861" d="M 211.5,171.5 C 211.369,172.239 211.536,172.906 212,173.5C 257.028,218.861 302.361,263.861 348,308.5C 348.21,306.942 348.71,305.609 349.5,304.5C 349.5,310.5 349.5,316.5 349.5,322.5C 301.34,274.507 253.007,226.674 204.5,179C 205.381,178.292 206.047,177.458 206.5,176.5C 207.833,174.5 209.5,172.833 211.5,171.5 Z"/></g>
<g><path style="opacity:1" fill="#2a9668" d="M 206.5,176.5 C 206.047,177.458 205.381,178.292 204.5,179C 253.007,226.674 301.34,274.507 349.5,322.5C 349.5,326.167 349.5,329.833 349.5,333.5C 348.761,333.631 348.094,333.464 347.5,333C 298.306,283.472 248.806,234.306 199,185.5C 198.536,184.906 198.369,184.239 198.5,183.5C 200.569,180.427 203.236,178.094 206.5,176.5 Z"/></g>
<g><path style="opacity:1" fill="#27946e" d="M 198.5,183.5 C 198.369,184.239 198.536,184.906 199,185.5C 248.806,234.306 298.306,283.472 347.5,333C 348.094,333.464 348.761,333.631 349.5,333.5C 349.915,337.375 349.415,341.042 348,344.5C 296.272,292.605 244.438,240.938 192.5,189.5C 194.167,187.167 196.167,185.167 198.5,183.5 Z"/></g>
<g><path style="opacity:1" fill="#2a9576" d="M 192.5,189.5 C 244.438,240.938 296.272,292.605 348,344.5C 349.415,341.042 349.915,337.375 349.5,333.5C 349.5,329.833 349.5,326.167 349.5,322.5C 349.5,316.5 349.5,310.5 349.5,304.5C 349.5,302.167 349.5,299.833 349.5,297.5C 349.5,293.833 349.5,290.167 349.5,286.5C 349.5,282.5 349.5,278.5 349.5,274.5C 349.194,271.615 349.527,268.948 350.5,266.5C 350.5,292.5 350.5,318.5 350.5,344.5C 349.518,347.962 349.185,351.629 349.5,355.5C 296.367,301.534 242.701,248.034 188.5,195C 189.252,194.329 189.586,193.496 189.5,192.5C 190.167,191.167 191.167,190.167 192.5,189.5 Z"/></g>
<g><path style="opacity:1" fill="#229179" d="M 189.5,192.5 C 189.586,193.496 189.252,194.329 188.5,195C 242.701,248.034 296.367,301.534 349.5,355.5C 349.5,357.833 349.5,360.167 349.5,362.5C 348.883,362.611 348.383,362.944 348,363.5C 292.66,309.326 237.826,254.66 183.5,199.5C 184.757,196.573 186.757,194.239 189.5,192.5 Z"/></g>
<g><path style="opacity:1" fill="#1e8e80" d="M 183.5,199.5 C 237.826,254.66 292.66,309.326 348,363.5C 348.383,362.944 348.883,362.611 349.5,362.5C 349.5,368.167 349.5,373.833 349.5,379.5C 348.732,378.737 348.232,377.737 348,376.5C 291.639,319.806 234.973,263.472 178,207.5C 177.536,206.906 177.369,206.239 177.5,205.5C 179.167,203.167 181.167,201.167 183.5,199.5 Z"/></g>
<g><path style="opacity:0.533" fill="#4f5f10" d="M 753.5,201.5 C 754.833,202.167 755.833,203.167 756.5,204.5C 754.5,204.5 753.5,203.5 753.5,201.5 Z"/></g>
<g><path style="opacity:1" fill="#1b8c86" d="M 177.5,205.5 C 177.369,206.239 177.536,206.906 178,207.5C 234.973,263.472 291.639,319.806 348,376.5C 348.232,377.737 348.732,378.737 349.5,379.5C 349.5,382.833 349.5,386.167 349.5,389.5C 290.832,329.832 231.499,270.832 171.5,212.5C 173.273,209.94 175.273,207.607 177.5,205.5 Z"/></g>
<g><path style="opacity:0.58" fill="#768a2e" d="M 758.5,206.5 C 760.063,207.945 761.396,209.611 762.5,211.5C 760.003,210.871 758.67,209.204 758.5,206.5 Z"/></g>
<g><path style="opacity:1" fill="#188a8d" d="M 169.5,212.5 C 169.938,213.506 170.604,213.506 171.5,212.5C 231.499,270.832 290.832,329.832 349.5,389.5C 349.666,393.514 349.499,397.514 349,401.5C 288.387,340.887 227.721,280.221 167,219.5C 166.617,220.056 166.117,220.389 165.5,220.5C 166.203,218.284 167.536,216.451 169.5,215C 169.272,214.601 168.938,214.435 168.5,214.5C 168.328,213.508 168.662,212.842 169.5,212.5 Z"/></g>
<g><path style="opacity:1" fill="#208b96" d="M 349.5,389.5 C 349.5,386.167 349.5,382.833 349.5,379.5C 349.5,373.833 349.5,368.167 349.5,362.5C 349.5,360.167 349.5,357.833 349.5,355.5C 349.185,351.629 349.518,347.962 350.5,344.5C 350.832,385.003 350.499,425.337 349.5,465.5C 349.5,459.833 349.5,454.167 349.5,448.5C 349.5,443.167 349.5,437.833 349.5,432.5C 349.5,430.167 349.5,427.833 349.5,425.5C 349.631,419.779 349.131,414.112 348,408.5C 286.555,346.22 224.388,284.887 161.5,224.5C 162.5,222.833 163.833,221.5 165.5,220.5C 166.117,220.389 166.617,220.056 167,219.5C 227.721,280.221 288.387,340.887 349,401.5C 349.499,397.514 349.666,393.514 349.5,389.5 Z"/></g>
<g><path style="opacity:0.071" fill="#a5b7b9" d="M 168.5,214.5 C 168.938,214.435 169.272,214.601 169.5,215C 167.536,216.451 166.203,218.284 165.5,220.5C 163.833,221.5 162.5,222.833 161.5,224.5C 159.5,227.167 157.5,229.833 155.5,232.5C 154.994,234.105 154.327,234.439 153.5,233.5C 157.388,226.28 162.388,219.947 168.5,214.5 Z"/></g>
<g><path style="opacity:0.086" fill="#475710" d="M 772.5,223.5 C 773.401,224.29 774.068,225.29 774.5,226.5C 772.952,226.179 772.285,225.179 772.5,223.5 Z"/></g>
<g><path style="opacity:1" fill="#128699" d="M 161.5,224.5 C 224.388,284.887 286.555,346.22 348,408.5C 349.131,414.112 349.631,419.779 349.5,425.5C 348.698,424.048 348.198,422.382 348,420.5C 284.361,357.861 221.027,294.861 158,231.5C 157.329,232.252 156.496,232.586 155.5,232.5C 157.5,229.833 159.5,227.167 161.5,224.5 Z"/></g>
<g><path style="opacity:1" fill="#1384a0" d="M 349.5,425.5 C 349.5,427.833 349.5,430.167 349.5,432.5C 293.396,377.896 237.729,322.73 182.5,267C 181.906,266.536 181.239,266.369 180.5,266.5C 174.69,265.51 168.69,265.177 162.5,265.5C 164.292,264.691 166.292,264.191 168.5,264C 162,257.5 155.5,251 149,244.5C 146.405,246.882 144.072,249.549 142,252.5C 141.601,252.272 141.435,251.938 141.5,251.5C 145.007,245.148 149.007,239.148 153.5,233.5C 154.327,234.439 154.994,234.105 155.5,232.5C 156.496,232.586 157.329,232.252 158,231.5C 221.027,294.861 284.361,357.861 348,420.5C 348.198,422.382 348.698,424.048 349.5,425.5 Z"/></g>
<g><path style="opacity:0.569" fill="#4d600e" d="M 776.5,229.5 C 778.633,231.091 780.299,233.091 781.5,235.5C 778.914,234.362 777.247,232.362 776.5,229.5 Z"/></g>
<g><path style="opacity:0.565" fill="#4e600e" d="M 782.5,237.5 C 786.911,242.648 790.578,248.314 793.5,254.5C 789.089,249.352 785.422,243.686 782.5,237.5 Z"/></g>
<g><path style="opacity:0.999" fill="#1e81af" d="M 162.5,265.5 C 153.161,265.666 143.827,265.5 134.5,265C 135.738,264.31 135.738,263.81 134.5,263.5C 136,259.003 138.333,255.003 141.5,251.5C 141.435,251.938 141.601,252.272 142,252.5C 144.072,249.549 146.405,246.882 149,244.5C 155.5,251 162,257.5 168.5,264C 166.292,264.191 164.292,264.691 162.5,265.5 Z"/></g>
<g><path style="opacity:0.997" fill="#fefefe" d="M 132.5,265.5 C 148.089,266.484 163.756,266.817 179.5,266.5C 179.168,333.002 179.501,399.335 180.5,465.5C 180.833,465.5 181.167,465.5 181.5,465.5C 185.181,494.371 199.515,516.205 224.5,531C 259.686,547.061 292.352,543.061 322.5,519C 334.507,507.811 342.507,494.311 346.5,478.5C 348.265,475.877 348.932,472.877 348.5,469.5C 349.434,468.432 349.768,467.099 349.5,465.5C 350.499,425.337 350.832,385.003 350.5,344.5C 350.5,318.5 350.5,292.5 350.5,266.5C 355.167,266.5 359.833,266.5 364.5,266.5C 368.167,266.5 371.833,266.5 375.5,266.5C 379.5,266.5 383.5,266.5 387.5,266.5C 395.167,266.5 402.833,266.5 410.5,266.5C 414.5,266.5 418.5,266.5 422.5,266.5C 428.5,266.5 434.5,266.5 440.5,266.5C 450.167,266.5 459.833,266.5 469.5,266.5C 494.5,266.5 519.5,266.5 544.5,266.5C 554.167,266.5 563.833,266.5 573.5,266.5C 582.833,266.5 592.167,266.5 601.5,266.5C 613.833,266.5 626.167,266.5 638.5,266.5C 648.167,266.5 657.833,266.5 667.5,266.5C 685.75,266.935 703.75,269.268 721.5,273.5C 741.88,279.523 760.88,288.523 778.5,300.5C 805.592,319.591 826.592,343.924 841.5,373.5C 841.557,374.609 841.89,375.609 842.5,376.5C 848.211,402.89 850.544,429.723 849.5,457C 850.539,484.664 848.206,511.83 842.5,538.5C 831.344,561.331 816.344,581.331 797.5,598.5C 782.168,611.501 765.501,622.501 747.5,631.5C 733.382,636.876 719.049,641.209 704.5,644.5C 697.499,645.25 690.499,646.083 683.5,647C 656.169,647.5 628.835,647.667 601.5,647.5C 578.5,647.5 555.5,647.5 532.5,647.5C 532.5,612.167 532.5,576.833 532.5,541.5C 554.833,541.5 577.167,541.5 599.5,541.5C 609.167,541.5 618.833,541.5 628.5,541.5C 645.214,541.805 661.881,541.471 678.5,540.5C 688.457,539.681 697.79,537.014 706.5,532.5C 712.686,529.578 718.352,525.911 723.5,521.5C 728.873,517.129 733.539,512.129 737.5,506.5C 742.061,501.25 745.394,495.25 747.5,488.5C 750.39,482.953 752.056,476.953 752.5,470.5C 757.375,433.998 744.375,405.498 713.5,385C 702.017,378.395 689.684,374.395 676.5,373C 603.167,372.5 529.834,372.333 456.5,372.5C 456.5,403.833 456.5,435.167 456.5,466.5C 455.947,471.482 455.613,476.482 455.5,481.5C 454.141,486.975 453.141,492.642 452.5,498.5C 449.87,507.401 447.203,516.401 444.5,525.5C 442.247,529.675 440.247,534.009 438.5,538.5C 435.916,542.666 433.583,547 431.5,551.5C 429.847,554.131 428.181,556.797 426.5,559.5C 424.836,562.159 423.17,564.825 421.5,567.5C 419.844,569.46 418.177,571.46 416.5,573.5C 414.863,575.475 413.196,577.475 411.5,579.5C 409.844,581.46 408.177,583.46 406.5,585.5C 403.833,587.5 401.5,589.833 399.5,592.5C 397.167,594.167 395.167,596.167 393.5,598.5C 391.091,599.701 389.091,601.367 387.5,603.5C 385.611,604.604 383.945,605.937 382.5,607.5C 380.228,608.441 378.228,609.774 376.5,611.5C 373.953,612.934 371.619,614.6 369.5,616.5C 367.205,617.475 365.205,618.808 363.5,620.5C 359.345,621.742 355.678,623.742 352.5,626.5C 350.847,626.66 349.514,627.326 348.5,628.5C 345.088,629.075 342.088,630.408 339.5,632.5C 335.617,633.459 331.95,634.792 328.5,636.5C 326.214,636.595 324.214,637.262 322.5,638.5C 318.603,639.055 314.937,640.055 311.5,641.5C 309.901,641.232 308.568,641.566 307.5,642.5C 303.64,642.808 299.974,643.475 296.5,644.5C 222.998,654.141 162.498,630.808 115,574.5C 107.729,564.947 101.229,554.947 95.5,544.5C 94.8717,541.91 93.705,539.577 92,537.5C 91.7679,538.737 91.2679,539.737 90.5,540.5C 87.522,528.683 85.522,516.683 84.5,504.5C 84.5,473.167 84.5,441.833 84.5,410.5C 90.5573,358.663 106.557,310.329 132.5,265.5 Z"/></g>
<g><path style="opacity:1" fill="#0d83a5" d="M 180.5,266.5 C 181.239,266.369 181.906,266.536 182.5,267C 237.729,322.73 293.396,377.896 349.5,432.5C 349.5,437.833 349.5,443.167 349.5,448.5C 348.691,446.708 348.191,444.708 348,442.5C 292.973,387.139 237.639,332.139 182,277.5C 181.502,280.817 181.335,284.15 181.5,287.5C 181.768,289.099 181.434,290.432 180.5,291.5C 180.5,283.167 180.5,274.833 180.5,266.5 Z"/></g>
<g><path style="opacity:1" fill="#0a81ab" d="M 349.5,448.5 C 349.5,454.167 349.5,459.833 349.5,465.5C 349.768,467.099 349.434,468.432 348.5,469.5C 348.5,466.833 348.5,464.167 348.5,461.5C 348.665,458.482 348.498,455.482 348,452.5C 292.326,397.66 236.826,342.66 181.5,287.5C 181.335,284.15 181.502,280.817 182,277.5C 237.639,332.139 292.973,387.139 348,442.5C 348.191,444.708 348.691,446.708 349.5,448.5 Z"/></g>
<g><path style="opacity:1" fill="#087fb1" d="M 181.5,287.5 C 236.826,342.66 292.326,397.66 348,452.5C 348.498,455.482 348.665,458.482 348.5,461.5C 293.174,406.34 237.674,351.34 182,296.5C 181.501,300.152 181.335,303.818 181.5,307.5C 181.672,308.492 181.338,309.158 180.5,309.5C 180.5,303.5 180.5,297.5 180.5,291.5C 181.434,290.432 181.768,289.099 181.5,287.5 Z"/></g>
<g><path style="opacity:1" fill="#bedded" d="M 134.5,263.5 C 135.738,263.81 135.738,264.31 134.5,265C 143.827,265.5 153.161,265.666 162.5,265.5C 168.69,265.177 174.69,265.51 180.5,266.5C 180.5,274.833 180.5,283.167 180.5,291.5C 180.5,297.5 180.5,303.5 180.5,309.5C 180.5,361.5 180.5,413.5 180.5,465.5C 179.501,399.335 179.168,333.002 179.5,266.5C 163.756,266.817 148.089,266.484 132.5,265.5C 132.833,264.5 133.5,263.833 134.5,263.5 Z"/></g>
<g><path style="opacity:0.225" fill="#4b5e0e" d="M 817.5,298.5 C 818.345,299.671 819.011,301.005 819.5,302.5C 818.833,302.5 818.167,302.5 817.5,302.5C 817.5,301.167 817.5,299.833 817.5,298.5 Z"/></g>
<g><path style="opacity:1" fill="#057db6" d="M 348.5,461.5 C 348.5,464.167 348.5,466.833 348.5,469.5C 348.932,472.877 348.265,475.877 346.5,478.5C 346.5,477.167 346.5,475.833 346.5,474.5C 347.573,473.749 347.74,472.749 347,471.5C 292.271,416.27 237.104,361.604 181.5,307.5C 181.335,303.818 181.501,300.152 182,296.5C 237.674,351.34 293.174,406.34 348.5,461.5 Z"/></g>
<g><path style="opacity:0.218" fill="#4a5e0e" d="M 820.5,305.5 C 821.345,306.671 822.011,308.005 822.5,309.5C 820.824,308.817 820.157,307.483 820.5,305.5 Z"/></g>
<g><path style="opacity:1" fill="#0b7ebc" d="M 181.5,307.5 C 237.104,361.604 292.271,416.27 347,471.5C 347.74,472.749 347.573,473.749 346.5,474.5C 291.84,420.007 237.007,365.674 182,311.5C 181.5,362.832 181.333,414.166 181.5,465.5C 181.167,465.5 180.833,465.5 180.5,465.5C 180.5,413.5 180.5,361.5 180.5,309.5C 181.338,309.158 181.672,308.492 181.5,307.5 Z"/></g>
<g><path style="opacity:1" fill="#017ac0" d="M 346.5,474.5 C 346.5,475.833 346.5,477.167 346.5,478.5C 342.507,494.311 334.507,507.811 322.5,519C 292.352,543.061 259.686,547.061 224.5,531C 199.515,516.205 185.181,494.371 181.5,465.5C 181.333,414.166 181.5,362.832 182,311.5C 237.007,365.674 291.84,420.007 346.5,474.5 Z"/></g>
<g><path style="opacity:0.276" fill="#566e0b" d="M 823.5,312.5 C 825.402,316.655 827.069,320.989 828.5,325.5C 825.491,321.794 823.824,317.461 823.5,312.5 Z"/></g>
<g><path style="opacity:0.561" fill="#59730a" d="M 828.5,326.5 C 832.342,334.363 835.009,342.697 836.5,351.5C 833.463,343.385 830.796,335.052 828.5,326.5 Z"/></g>
<g><path style="opacity:0.245" fill="#5b7a08" d="M 836.5,351.5 C 837.924,353.515 838.59,355.848 838.5,358.5C 837.076,356.485 836.41,354.152 836.5,351.5 Z"/></g>
<g><path style="opacity:0.332" fill="#57750a" d="M 838.5,358.5 C 840.531,363.766 842.198,369.266 843.5,375C 843.43,375.765 843.097,376.265 842.5,376.5C 841.89,375.609 841.557,374.609 841.5,373.5C 840.341,368.532 839.341,363.532 838.5,358.5 Z"/></g>
<g><path style="opacity:1" fill="#6dbd00" d="M 460.5,373.5 C 516.272,428.772 571.938,484.272 627.5,540C 618.173,540.5 608.839,540.666 599.5,540.5C 552.805,492.805 505.472,445.805 457.5,399.5C 457.5,390.833 457.5,382.167 457.5,373.5C 458.5,373.5 459.5,373.5 460.5,373.5 Z"/></g>
<g><path style="opacity:1" fill="#73be00" d="M 460.5,373.5 C 469.833,373.5 479.167,373.5 488.5,373.5C 544.272,428.772 599.938,484.272 655.5,540C 646.324,540.17 637.324,540.67 628.5,541.5C 618.833,541.5 609.167,541.5 599.5,541.5C 599.5,541.167 599.5,540.833 599.5,540.5C 608.839,540.666 618.173,540.5 627.5,540C 571.938,484.272 516.272,428.772 460.5,373.5 Z"/></g>
<g><path style="opacity:1" fill="#79c000" d="M 488.5,373.5 C 498.167,373.5 507.833,373.5 517.5,373.5C 572.146,428.479 626.812,483.479 681.5,538.5C 680.398,539.176 679.398,539.842 678.5,540.5C 661.881,541.471 645.214,541.805 628.5,541.5C 637.324,540.67 646.324,540.17 655.5,540C 599.938,484.272 544.272,428.772 488.5,373.5 Z"/></g>
<g><path style="opacity:1" fill="#80c200" d="M 517.5,373.5 C 528.167,373.5 538.833,373.5 549.5,373.5C 601.772,425.272 653.938,477.272 706,529.5C 706.483,530.448 706.649,531.448 706.5,532.5C 697.79,537.014 688.457,539.681 678.5,540.5C 679.398,539.842 680.398,539.176 681.5,538.5C 626.812,483.479 572.146,428.479 517.5,373.5 Z"/></g>
<g><path style="opacity:1" fill="#86c300" d="M 549.5,373.5 C 559.167,373.5 568.833,373.5 578.5,373.5C 626.465,421.965 674.632,470.299 723,518.5C 723.483,519.448 723.649,520.448 723.5,521.5C 718.352,525.911 712.686,529.578 706.5,532.5C 706.649,531.448 706.483,530.448 706,529.5C 653.938,477.272 601.772,425.272 549.5,373.5 Z"/></g>
<g><path style="opacity:1" fill="#8cc500" d="M 578.5,373.5 C 587.833,373.5 597.167,373.5 606.5,373.5C 649.799,417.299 693.299,460.965 737,504.5C 737.464,505.094 737.631,505.761 737.5,506.5C 733.539,512.129 728.873,517.129 723.5,521.5C 723.649,520.448 723.483,519.448 723,518.5C 674.632,470.299 626.465,421.965 578.5,373.5 Z"/></g>
<g><path style="opacity:1" fill="#92c700" d="M 606.5,373.5 C 615.833,373.5 625.167,373.5 634.5,373.5C 671.493,411.326 708.993,448.66 747,485.5C 747.483,486.448 747.649,487.448 747.5,488.5C 745.394,495.25 742.061,501.25 737.5,506.5C 737.631,505.761 737.464,505.094 737,504.5C 693.299,460.965 649.799,417.299 606.5,373.5 Z"/></g>
<g><path style="opacity:1" fill="#98c800" d="M 634.5,373.5 C 645.505,373.333 656.505,373.5 667.5,374C 695.667,402.167 723.833,430.333 752,458.5C 752.499,462.486 752.666,466.486 752.5,470.5C 752.056,476.953 750.39,482.953 747.5,488.5C 747.649,487.448 747.483,486.448 747,485.5C 708.993,448.66 671.493,411.326 634.5,373.5 Z"/></g>
<g><path style="opacity:1" fill="#a1cc19" d="M 752.5,470.5 C 752.666,466.486 752.499,462.486 752,458.5C 723.833,430.333 695.667,402.167 667.5,374C 656.505,373.5 645.505,373.333 634.5,373.5C 625.167,373.5 615.833,373.5 606.5,373.5C 597.167,373.5 587.833,373.5 578.5,373.5C 568.833,373.5 559.167,373.5 549.5,373.5C 538.833,373.5 528.167,373.5 517.5,373.5C 507.833,373.5 498.167,373.5 488.5,373.5C 479.167,373.5 469.833,373.5 460.5,373.5C 459.5,373.5 458.5,373.5 457.5,373.5C 457.5,382.167 457.5,390.833 457.5,399.5C 457.5,410.5 457.5,421.5 457.5,432.5C 457.828,444.012 457.495,455.346 456.5,466.5C 456.5,435.167 456.5,403.833 456.5,372.5C 529.834,372.333 603.167,372.5 676.5,373C 689.684,374.395 702.017,378.395 713.5,385C 744.375,405.498 757.375,433.998 752.5,470.5 Z"/></g>
<g><path style="opacity:1" fill="#66bb00" d="M 457.5,399.5 C 505.472,445.805 552.805,492.805 599.5,540.5C 599.5,540.833 599.5,541.167 599.5,541.5C 577.167,541.5 554.833,541.5 532.5,541.5C 532.167,541.5 531.833,541.5 531.5,541.5C 542.993,540.669 554.659,540.169 566.5,540C 530.604,503.603 494.27,467.77 457.5,432.5C 457.5,421.5 457.5,410.5 457.5,399.5 Z"/></g>
<g><path style="opacity:0.092" fill="#424242" d="M 84.5,410.5 C 84.5,441.833 84.5,473.167 84.5,504.5C 82.9592,489.031 82.2925,473.365 82.5,457.5C 82.2925,441.635 82.9592,425.969 84.5,410.5 Z"/></g>
<g><path style="opacity:1" fill="#5db801" d="M 457.5,432.5 C 494.27,467.77 530.604,503.603 566.5,540C 554.659,540.169 542.993,540.669 531.5,541.5C 530.675,545.647 530.175,549.981 530,554.5C 504.993,530.327 480.16,505.993 455.5,481.5C 455.613,476.482 455.947,471.482 456.5,466.5C 457.495,455.346 457.828,444.012 457.5,432.5 Z"/></g>
<g><path style="opacity:1" fill="#55b310" d="M 455.5,481.5 C 480.16,505.993 504.993,530.327 530,554.5C 530.175,549.981 530.675,545.647 531.5,541.5C 531.5,550.833 531.5,560.167 531.5,569.5C 530.679,572.641 530.179,575.975 530,579.5C 504.333,553.833 478.667,528.167 453,502.5C 452.51,501.207 452.343,499.873 452.5,498.5C 453.141,492.642 454.141,486.975 455.5,481.5 Z"/></g>
<g><path style="opacity:1" fill="#4dae1f" d="M 452.5,498.5 C 452.343,499.873 452.51,501.207 453,502.5C 478.667,528.167 504.333,553.833 530,579.5C 530.179,575.975 530.679,572.641 531.5,569.5C 531.5,576.167 531.5,582.833 531.5,589.5C 530.671,596.321 530.171,603.321 530,610.5C 501.632,581.965 473.132,553.632 444.5,525.5C 447.203,516.401 449.87,507.401 452.5,498.5 Z"/></g>
<g><path style="opacity:1" fill="#46a92d" d="M 444.5,525.5 C 473.132,553.632 501.632,581.965 530,610.5C 530.171,603.321 530.671,596.321 531.5,589.5C 531.5,598.167 531.5,606.833 531.5,615.5C 530.673,620.651 530.173,625.984 530,631.5C 499.972,601.139 469.639,571.139 439,541.5C 438.517,540.552 438.351,539.552 438.5,538.5C 440.247,534.009 442.247,529.675 444.5,525.5 Z"/></g>
<g><path style="opacity:0.988" fill="#74a3c4" d="M 95.5,544.5 C 94.8826,544.389 94.3826,544.056 94,543.5C 93.79,545.058 93.29,546.391 92.5,547.5C 90.8325,545.521 90.1658,543.188 90.5,540.5C 91.2679,539.737 91.7679,538.737 92,537.5C 93.705,539.577 94.8717,541.91 95.5,544.5 Z"/></g>
<g><path style="opacity:1" fill="#027ac1" d="M 95.5,544.5 C 101.229,554.947 107.729,564.947 115,574.5C 162.498,630.808 222.998,654.141 296.5,644.5C 359.993,708.826 423.993,772.66 488.5,836C 481.495,837.152 474.328,837.652 467,837.5C 453.498,837.175 439.998,836.841 426.5,836.5C 365.803,830.213 309.803,810.713 258.5,778C 247.677,770.669 237.01,763.169 226.5,755.5C 211.959,743.465 198.126,730.465 185,716.5C 172.165,702.513 160.331,687.846 149.5,672.5C 123.718,634.589 105.218,593.256 94,548.5C 93.51,549.793 93.3433,551.127 93.5,552.5C 92.5489,551.081 92.2155,549.415 92.5,547.5C 93.29,546.391 93.79,545.058 94,543.5C 94.3826,544.056 94.8826,544.389 95.5,544.5 Z"/></g>
<g><path style="opacity:1" fill="#40a639" d="M 438.5,538.5 C 438.351,539.552 438.517,540.552 439,541.5C 469.639,571.139 499.972,601.139 530,631.5C 530.173,625.984 530.673,620.651 531.5,615.5C 531.5,626.5 531.5,637.5 531.5,648.5C 532.833,648.5 534.167,648.5 535.5,648.5C 578.965,692.465 622.632,736.299 666.5,780C 667.793,780.49 669.127,780.657 670.5,780.5C 668.337,782.083 666.004,783.416 663.5,784.5C 586.868,707.034 509.701,630.034 432,553.5C 431.536,552.906 431.369,552.239 431.5,551.5C 433.583,547 435.916,542.666 438.5,538.5 Z"/></g>
<g><path style="opacity:1" fill="#3ca340" d="M 431.5,551.5 C 431.369,552.239 431.536,552.906 432,553.5C 509.701,630.034 586.868,707.034 663.5,784.5C 661.337,786.083 659.004,787.416 656.5,788.5C 655.448,788.649 654.448,788.483 653.5,788C 577.694,713.194 502.194,638.027 427,562.5C 426.517,561.552 426.351,560.552 426.5,559.5C 428.181,556.797 429.847,554.131 431.5,551.5 Z"/></g>
<g><path style="opacity:1" fill="#39a147" d="M 426.5,559.5 C 426.351,560.552 426.517,561.552 427,562.5C 502.194,638.027 577.694,713.194 653.5,788C 654.448,788.483 655.448,788.649 656.5,788.5C 653.669,790.417 650.669,792.083 647.5,793.5C 571.887,718.554 496.554,643.221 421.5,567.5C 423.17,564.825 424.836,562.159 426.5,559.5 Z"/></g>
<g><path style="opacity:1" fill="#369f4e" d="M 421.5,567.5 C 496.554,643.221 571.887,718.554 647.5,793.5C 645.819,795.008 643.819,796.008 641.5,796.5C 640.448,796.649 639.448,796.483 638.5,796C 564.667,722.833 490.833,649.667 417,576.5C 416.517,575.552 416.351,574.552 416.5,573.5C 418.177,571.46 419.844,569.46 421.5,567.5 Z"/></g>
<g><path style="opacity:1" fill="#339d54" d="M 416.5,573.5 C 416.351,574.552 416.517,575.552 417,576.5C 490.833,649.667 564.667,722.833 638.5,796C 639.448,796.483 640.448,796.649 641.5,796.5C 638.485,798.674 635.151,800.341 631.5,801.5C 558.255,728.755 485.089,655.755 412,582.5C 411.517,581.552 411.351,580.552 411.5,579.5C 413.196,577.475 414.863,575.475 416.5,573.5 Z"/></g>
<g><path style="opacity:1" fill="#309a5a" d="M 411.5,579.5 C 411.351,580.552 411.517,581.552 412,582.5C 485.089,655.755 558.255,728.755 631.5,801.5C 630.486,802.674 629.153,803.34 627.5,803.5C 626.127,803.657 624.793,803.49 623.5,803C 551.027,731.527 478.861,659.694 407,587.5C 406.536,586.906 406.369,586.239 406.5,585.5C 408.177,583.46 409.844,581.46 411.5,579.5 Z"/></g>
<g><path style="opacity:0.992" fill="#8dc209" d="M 842.5,538.5 C 837.34,564.979 829.007,590.312 817.5,614.5C 817.649,613.448 817.483,612.448 817,611.5C 812.167,606.667 807.333,601.833 802.5,597C 800.811,597.134 799.144,597.634 797.5,598.5C 816.344,581.331 831.344,561.331 842.5,538.5 Z"/></g>
<g><path style="opacity:1" fill="#2d9861" d="M 406.5,585.5 C 406.369,586.239 406.536,586.906 407,587.5C 478.861,659.694 551.027,731.527 623.5,803C 624.793,803.49 626.127,803.657 627.5,803.5C 623.797,805.679 619.797,807.345 615.5,808.5C 543.543,736.509 471.543,664.509 399.5,592.5C 401.5,589.833 403.833,587.5 406.5,585.5 Z"/></g>
<g><path style="opacity:1" fill="#2a9668" d="M 399.5,592.5 C 471.543,664.509 543.543,736.509 615.5,808.5C 613.491,810.065 611.157,811.065 608.5,811.5C 607.761,811.631 607.094,811.464 606.5,811C 535.605,739.938 464.605,669.105 393.5,598.5C 395.167,596.167 397.167,594.167 399.5,592.5 Z"/></g>
<g><path style="opacity:1" fill="#27946e" d="M 393.5,598.5 C 464.605,669.105 535.605,739.938 606.5,811C 607.094,811.464 607.761,811.631 608.5,811.5C 606.064,812.871 603.397,813.871 600.5,814.5C 599.761,814.631 599.094,814.464 598.5,814C 528.272,743.605 457.938,673.438 387.5,603.5C 389.091,601.367 391.091,599.701 393.5,598.5 Z"/></g>
<g><path style="opacity:1" fill="#249274" d="M 387.5,603.5 C 457.938,673.438 528.272,743.605 598.5,814C 599.094,814.464 599.761,814.631 600.5,814.5C 598.321,815.677 595.987,816.677 593.5,817.5C 523.167,747.5 452.833,677.5 382.5,607.5C 383.945,605.937 385.611,604.604 387.5,603.5 Z"/></g>
<g><path style="opacity:1" fill="#219179" d="M 382.5,607.5 C 452.833,677.5 523.167,747.5 593.5,817.5C 591.883,818.038 590.216,818.371 588.5,818.5C 586.801,818.66 585.134,818.494 583.5,818C 513.918,749.584 444.918,680.751 376.5,611.5C 378.228,609.774 380.228,608.441 382.5,607.5 Z"/></g>
<g><path style="opacity:1" fill="#1e8e80" d="M 376.5,611.5 C 444.918,680.751 513.918,749.584 583.5,818C 585.134,818.494 586.801,818.66 588.5,818.5C 584.498,820.61 580.165,821.943 575.5,822.5C 506.589,755.09 438.089,687.09 370,618.5C 369.536,617.906 369.369,617.239 369.5,616.5C 371.619,614.6 373.953,612.934 376.5,611.5 Z"/></g>
<g><path style="opacity:1" fill="#1b8c86" d="M 369.5,616.5 C 369.369,617.239 369.536,617.906 370,618.5C 438.089,687.09 506.589,755.09 575.5,822.5C 575.5,822.833 575.5,823.167 575.5,823.5C 573.194,823.993 570.861,824.326 568.5,824.5C 567.448,824.649 566.448,824.483 565.5,824C 498.139,756.306 430.473,688.972 362.5,622C 363.056,621.617 363.389,621.117 363.5,620.5C 365.205,618.808 367.205,617.475 369.5,616.5 Z"/></g>
<g><path style="opacity:0.998" fill="#7dc006" d="M 817.5,614.5 C 808.774,633.625 798.774,651.958 787.5,669.5C 786.761,669.631 786.094,669.464 785.5,669C 772.965,656.298 760.298,643.798 747.5,631.5C 765.501,622.501 782.168,611.501 797.5,598.5C 799.144,597.634 800.811,597.134 802.5,597C 807.333,601.833 812.167,606.667 817,611.5C 817.483,612.448 817.649,613.448 817.5,614.5 Z"/></g>
<g><path style="opacity:1" fill="#198a8d" d="M 363.5,620.5 C 363.389,621.117 363.056,621.617 362.5,622C 430.473,688.972 498.139,756.306 565.5,824C 566.448,824.483 567.448,824.649 568.5,824.5C 561.83,827.255 554.83,829.255 547.5,830.5C 547.833,829.833 548.167,829.167 548.5,828.5C 550.927,828.477 553.26,827.977 555.5,827C 488.555,759.22 420.888,692.387 352.5,626.5C 355.678,623.742 359.345,621.742 363.5,620.5 Z"/></g>
<g><path style="opacity:1" fill="#158893" d="M 352.5,626.5 C 420.888,692.387 488.555,759.22 555.5,827C 553.26,827.977 550.927,828.477 548.5,828.5C 481.527,762.194 414.86,695.527 348.5,628.5C 349.514,627.326 350.847,626.66 352.5,626.5 Z"/></g>
<g><path style="opacity:0.11" fill="#aab8c1" d="M 149.5,672.5 C 148.662,672.842 148.328,673.508 148.5,674.5C 122.83,637.156 104.497,596.49 93.5,552.5C 93.3433,551.127 93.51,549.793 94,548.5C 105.218,593.256 123.718,634.589 149.5,672.5 Z"/></g>
<g><path style="opacity:1" fill="#138798" d="M 348.5,628.5 C 414.86,695.527 481.527,762.194 548.5,828.5C 548.167,829.167 547.833,829.833 547.5,830.5C 544.135,831.04 540.802,831.706 537.5,832.5C 537.649,831.448 537.483,830.448 537,829.5C 471.272,763.605 405.438,697.938 339.5,632.5C 342.088,630.408 345.088,629.075 348.5,628.5 Z"/></g>
<g><path style="opacity:1" fill="#10849f" d="M 339.5,632.5 C 405.438,697.938 471.272,763.605 537,829.5C 537.483,830.448 537.649,831.448 537.5,832.5C 535.139,832.674 532.806,833.007 530.5,833.5C 464.701,767.868 398.701,702.368 332.5,637C 331.207,636.51 329.873,636.343 328.5,636.5C 331.95,634.792 335.617,633.459 339.5,632.5 Z"/></g>
<g><path style="opacity:1" fill="#0d83a5" d="M 328.5,636.5 C 329.873,636.343 331.207,636.51 332.5,637C 398.701,702.368 464.701,767.868 530.5,833.5C 525.184,834.296 519.851,834.963 514.5,835.5C 516.158,834.819 517.825,833.985 519.5,833C 454.194,768.694 389.194,704.028 324.5,639C 323.906,638.536 323.239,638.369 322.5,638.5C 324.214,637.262 326.214,636.595 328.5,636.5 Z"/></g>
<g><path style="opacity:1" fill="#0b81ab" d="M 322.5,638.5 C 323.239,638.369 323.906,638.536 324.5,639C 389.194,704.028 454.194,768.694 519.5,833C 517.825,833.985 516.158,834.819 514.5,835.5C 512.958,836.301 511.292,836.634 509.5,836.5C 509.918,835.778 510.584,835.278 511.5,835C 446.5,770.667 381.5,706.333 316.5,642C 314.866,641.506 313.199,641.34 311.5,641.5C 314.937,640.055 318.603,639.055 322.5,638.5 Z"/></g>
<g><path style="opacity:1" fill="#71bd09" d="M 747.5,631.5 C 760.298,643.798 772.965,656.298 785.5,669C 786.094,669.464 786.761,669.631 787.5,669.5C 781.238,679.423 774.238,688.756 766.5,697.5C 765.5,697.833 764.833,698.5 764.5,699.5C 763.876,701.754 762.543,703.421 760.5,704.5C 760.66,702.801 760.494,701.134 760,699.5C 741.632,680.965 723.132,662.632 704.5,644.5C 719.049,641.209 733.382,636.876 747.5,631.5 Z"/></g>
<g><path style="opacity:1" fill="#097fb1" d="M 307.5,642.5 C 308.568,641.566 309.901,641.232 311.5,641.5C 313.199,641.34 314.866,641.506 316.5,642C 381.5,706.333 446.5,770.667 511.5,835C 510.584,835.278 509.918,835.778 509.5,836.5C 505.846,836.942 502.179,837.276 498.5,837.5C 499.347,836.034 500.68,835.2 502.5,835C 437.861,771.361 373.527,707.361 309.5,643C 308.906,642.536 308.239,642.369 307.5,642.5 Z"/></g>
<g><path style="opacity:1" fill="#067db6" d="M 307.5,642.5 C 308.239,642.369 308.906,642.536 309.5,643C 373.527,707.361 437.861,771.361 502.5,835C 500.68,835.2 499.347,836.034 498.5,837.5C 496.167,837.5 493.833,837.5 491.5,837.5C 491.611,836.883 491.944,836.383 492.5,836C 428.194,772.694 364.194,709.028 300.5,645C 299.207,644.51 297.873,644.343 296.5,644.5C 299.974,643.475 303.64,642.808 307.5,642.5 Z"/></g>
<g><path style="opacity:1" fill="#087cbb" d="M 296.5,644.5 C 297.873,644.343 299.207,644.51 300.5,645C 364.194,709.028 428.194,772.694 492.5,836C 491.944,836.383 491.611,836.883 491.5,837.5C 482.032,838.127 472.532,838.46 463,838.5C 450.628,838.691 438.462,838.024 426.5,836.5C 439.998,836.841 453.498,837.175 467,837.5C 474.328,837.652 481.495,837.152 488.5,836C 423.993,772.66 359.993,708.826 296.5,644.5 Z"/></g>
<g><path style="opacity:1" fill="#8bca6f" d="M 531.5,541.5 C 531.833,541.5 532.167,541.5 532.5,541.5C 532.5,576.833 532.5,612.167 532.5,647.5C 555.5,647.5 578.5,647.5 601.5,647.5C 601.5,647.833 601.5,648.167 601.5,648.5C 601.167,648.5 600.833,648.5 600.5,648.5C 594.833,648.5 589.167,648.5 583.5,648.5C 578.833,648.5 574.167,648.5 569.5,648.5C 562.167,648.5 554.833,648.5 547.5,648.5C 543.5,648.5 539.5,648.5 535.5,648.5C 534.167,648.5 532.833,648.5 531.5,648.5C 531.5,637.5 531.5,626.5 531.5,615.5C 531.5,606.833 531.5,598.167 531.5,589.5C 531.5,582.833 531.5,576.167 531.5,569.5C 531.5,560.167 531.5,550.833 531.5,541.5 Z"/></g>
<g><path style="opacity:1" fill="#42a735" d="M 535.5,648.5 C 539.5,648.5 543.5,648.5 547.5,648.5C 589.862,691.862 632.862,734.528 676.5,776.5C 674.853,778.326 672.853,779.66 670.5,780.5C 669.127,780.657 667.793,780.49 666.5,780C 622.632,736.299 578.965,692.465 535.5,648.5 Z"/></g>
<g><path style="opacity:1" fill="#47aa2a" d="M 547.5,648.5 C 554.833,648.5 562.167,648.5 569.5,648.5C 608.632,688.132 647.965,727.632 687.5,767C 688.448,767.483 689.448,767.649 690.5,767.5C 686.181,770.996 681.515,773.996 676.5,776.5C 632.862,734.528 589.862,691.862 547.5,648.5 Z"/></g>
<g><path style="opacity:1" fill="#4bad21" d="M 569.5,648.5 C 574.167,648.5 578.833,648.5 583.5,648.5C 620.632,686.132 657.965,723.632 695.5,761C 696.448,761.483 697.448,761.649 698.5,761.5C 696.14,763.853 693.473,765.853 690.5,767.5C 689.448,767.649 688.448,767.483 687.5,767C 647.965,727.632 608.632,688.132 569.5,648.5 Z"/></g>
<g><path style="opacity:1" fill="#4fb018" d="M 583.5,648.5 C 589.167,648.5 594.833,648.5 600.5,648.5C 635.549,684.55 671.216,719.883 707.5,754.5C 704.81,757.185 701.81,759.518 698.5,761.5C 697.448,761.649 696.448,761.483 695.5,761C 657.965,723.632 620.632,686.132 583.5,648.5 Z"/></g>
<g><path style="opacity:1" fill="#55b40d" d="M 600.5,648.5 C 600.833,648.5 601.167,648.5 601.5,648.5C 609.167,648.5 616.833,648.5 624.5,648.5C 655.327,680.16 686.66,711.327 718.5,742C 719.448,742.483 720.448,742.649 721.5,742.5C 717.153,746.845 712.486,750.845 707.5,754.5C 671.216,719.883 635.549,684.55 600.5,648.5 Z"/></g>
<g><path style="opacity:1" fill="#5bb702" d="M 624.5,648.5 C 632.507,648.334 640.507,648.5 648.5,649C 676.752,676.751 704.419,704.917 731.5,733.5C 728.769,737.234 725.436,740.234 721.5,742.5C 720.448,742.649 719.448,742.483 718.5,742C 686.66,711.327 655.327,680.16 624.5,648.5 Z"/></g>
<g><path style="opacity:1" fill="#64ba06" d="M 704.5,644.5 C 723.132,662.632 741.632,680.965 760,699.5C 760.494,701.134 760.66,702.801 760.5,704.5C 759.5,704.833 758.833,705.5 758.5,706.5C 757.581,709.089 755.914,711.089 753.5,712.5C 750.757,714.239 748.757,716.573 747.5,719.5C 743.5,724.167 739.167,728.5 734.5,732.5C 733.391,732.557 732.391,732.89 731.5,733.5C 704.419,704.917 676.752,676.751 648.5,649C 640.507,648.5 632.507,648.334 624.5,648.5C 616.833,648.5 609.167,648.5 601.5,648.5C 601.5,648.167 601.5,647.833 601.5,647.5C 628.835,647.667 656.169,647.5 683.5,647C 690.499,646.083 697.499,645.25 704.5,644.5 Z"/></g>
<g><path style="opacity:0.02" fill="#ced5d9" d="M 149.5,672.5 C 160.331,687.846 172.165,702.513 185,716.5C 198.126,730.465 211.959,743.465 226.5,755.5C 225.662,755.842 225.328,756.508 225.5,757.5C 195.482,733.738 169.816,706.071 148.5,674.5C 148.328,673.508 148.662,672.842 149.5,672.5 Z"/></g>
<g><path style="opacity:0.004" fill="#bfbfbf" d="M 766.5,697.5 C 766.5,698.833 765.833,699.5 764.5,699.5C 764.833,698.5 765.5,697.833 766.5,697.5 Z"/></g>
<g><path style="opacity:0.004" fill="#bfbfbf" d="M 760.5,704.5 C 760.5,705.833 759.833,706.5 758.5,706.5C 758.833,705.5 759.5,704.833 760.5,704.5 Z"/></g>
<g><path style="opacity:0.004" fill="#b9beb3" d="M 753.5,712.5 C 752.243,715.427 750.243,717.761 747.5,719.5C 748.757,716.573 750.757,714.239 753.5,712.5 Z"/></g>
<g><path style="opacity:0.188" fill="#e0e6e2" d="M 734.5,732.5 C 690.84,775.949 639.506,806.616 580.5,824.5C 579.081,823.549 577.415,823.216 575.5,823.5C 575.5,823.167 575.5,822.833 575.5,822.5C 580.165,821.943 584.498,820.61 588.5,818.5C 590.216,818.371 591.883,818.038 593.5,817.5C 595.987,816.677 598.321,815.677 600.5,814.5C 603.397,813.871 606.064,812.871 608.5,811.5C 611.157,811.065 613.491,810.065 615.5,808.5C 619.797,807.345 623.797,805.679 627.5,803.5C 629.153,803.34 630.486,802.674 631.5,801.5C 635.151,800.341 638.485,798.674 641.5,796.5C 643.819,796.008 645.819,795.008 647.5,793.5C 650.669,792.083 653.669,790.417 656.5,788.5C 659.004,787.416 661.337,786.083 663.5,784.5C 666.004,783.416 668.337,782.083 670.5,780.5C 672.853,779.66 674.853,778.326 676.5,776.5C 681.515,773.996 686.181,770.996 690.5,767.5C 693.473,765.853 696.14,763.853 698.5,761.5C 701.81,759.518 704.81,757.185 707.5,754.5C 712.486,750.845 717.153,746.845 721.5,742.5C 725.436,740.234 728.769,737.234 731.5,733.5C 732.391,732.89 733.391,732.557 734.5,732.5 Z"/></g>
<g><path style="opacity:0.32" fill="#e4e7e8" d="M 226.5,755.5 C 237.01,763.169 247.677,770.669 258.5,778C 309.803,810.713 365.803,830.213 426.5,836.5C 438.462,838.024 450.628,838.691 463,838.5C 472.532,838.46 482.032,838.127 491.5,837.5C 493.833,837.5 496.167,837.5 498.5,837.5C 502.179,837.276 505.846,836.942 509.5,836.5C 511.292,836.634 512.958,836.301 514.5,835.5C 519.851,834.963 525.184,834.296 530.5,833.5C 532.806,833.007 535.139,832.674 537.5,832.5C 540.802,831.706 544.135,831.04 547.5,830.5C 554.83,829.255 561.83,827.255 568.5,824.5C 570.861,824.326 573.194,823.993 575.5,823.5C 577.415,823.216 579.081,823.549 580.5,824.5C 466.165,857.741 358.498,843.241 257.5,781C 246.394,773.721 235.727,765.888 225.5,757.5C 225.328,756.508 225.662,755.842 226.5,755.5 Z"/></g>
</svg>
